HIERARCHY
ROOT Hips
{
	OFFSET -0.001795 -0.223333 0.028219
	CHANNELS 6 Xposition Yposition Zposition Zrotation Yrotation Xrotation 
	JOINT LeftUpLeg
	{
		OFFSET 0.069520 -0.091406 -0.006815
		CHANNELS 3 Zrotation Yrotation Xrotation
		JOINT LeftLeg
		{
			OFFSET 0.034277 -0.375199 -0.004496
			CHANNELS 3 Zrotation Yrotation Xrotation
			JOINT LeftFoot
			{
				OFFSET -0.013596 -0.397961 -0.043693
				CHANNELS 3 Zrotation Yrotation Xrotation
				JOINT LeftToe
				{
					OFFSET 0.026358 -0.055791 0.119288
					CHANNELS 3 Zrotation Yrotation Xrotation
					End Site
					{
						OFFSET 0.000000 0.000000 0.000000
					}
				}
			}
		}
	}
	JOINT RightUpLeg
	{
		OFFSET -0.067670 -0.090522 -0.004320
		CHANNELS 3 Zrotation Yrotation Xrotation
		JOINT RightLeg
		{
			OFFSET -0.038290 -0.382569 -0.008850
			CHANNELS 3 Zrotation Yrotation Xrotation
			JOINT RightFoot
			{
				OFFSET 0.015774 -0.398415 -0.042312
				CHANNELS 3 Zrotation Yrotation Xrotation
				JOINT RightToe
				{
					OFFSET -0.025372 -0.048144 0.123348
					CHANNELS 3 Zrotation Yrotation Xrotation
					End Site
					{
						OFFSET 0.000000 0.000000 0.000000
					}
				}
			}
		}
	}
	JOINT Spine
	{
		OFFSET -0.002533 0.108963 -0.026696
		CHANNELS 3 Zrotation Yrotation Xrotation
		JOINT Spine1
		{
			OFFSET 0.005487 0.135180 0.001092
			CHANNELS 3 Zrotation Yrotation Xrotation
			JOINT Spine2
			{
				OFFSET 0.001457 0.052922 0.025425
				CHANNELS 3 Zrotation Yrotation Xrotation
				JOINT Neck
				{
					OFFSET -0.002778 0.213870 -0.042857
					CHANNELS 3 Zrotation Yrotation Xrotation
					JOINT Head
					{
						OFFSET 0.005152 0.064970 0.051349
						CHANNELS 3 Zrotation Yrotation Xrotation
						End Site
						{
							OFFSET 0.000000 0.000000 0.000000
						}
					}
				}
				JOINT LeftShoulder
				{
					OFFSET 0.078845 0.121749 -0.034090
					CHANNELS 3 Zrotation Yrotation Xrotation
					JOINT LeftArm
					{
						OFFSET 0.090977 0.030469 -0.008868
						CHANNELS 3 Zrotation Yrotation Xrotation
						JOINT LeftForeArm
						{
							OFFSET 0.259612 -0.012772 -0.027456
							CHANNELS 3 Zrotation Yrotation Xrotation
							JOINT LeftHand
							{
								OFFSET 0.249234 0.008986 -0.001171
								CHANNELS 3 Zrotation Yrotation Xrotation
								End Site
								{
									OFFSET 0.000000 0.000000 0.000000
								}
							}
						}
					}
				}
				JOINT RightShoulder
				{
					OFFSET -0.081759 0.118833 -0.038615
					CHANNELS 3 Zrotation Yrotation Xrotation
					JOINT RightArm
					{
						OFFSET -0.096012 0.032551 -0.009143
						CHANNELS 3 Zrotation Yrotation Xrotation
						JOINT RightForeArm
						{
							OFFSET -0.253742 -0.013329 -0.021401
							CHANNELS 3 Zrotation Yrotation Xrotation
							JOINT RightHand
							{
								OFFSET -0.255298 0.007772 -0.005559
								CHANNELS 3 Zrotation Yrotation Xrotation
								End Site
								{
									OFFSET 0.000000 0.000000 0.000000
								}
							}
						}
					}
				}
			}
		}
	}
}
MOTION
Frames: 13
Frame Time: 0.050000
0.000000 0.945966 0.000000 -1.952689 4.942215 0.210752 -1.483881 -0.874152 -8.608538 -0.019587 -0.426950 10.237467 -2.540372 -1.868354 5.956489 0.000000 0.000000 0.000000 -0.595063 1.287683 -14.065291 3.411249 -0.704934 31.677648 -2.639803 -9.056466 10.066837 0.000000 0.000000 0.000000 0.417029 -0.196550 4.232098 -0.859049 0.440377 -0.829118 0.179937 1.737812 3.425207 6.386161 -1.325001 -22.471682 0.000000 0.000000 0.000000 -22.444366 -1.546702 -2.686286 -48.450014 -7.413730 -2.385108 -102.898068 -68.698351 83.380588 0.000000 0.000000 0.000000 22.772152 0.402925 -0.635499 54.099123 10.205100 -0.929133 84.939350 75.964483 76.828112 0.000000 0.000000 0.000000 
0.001587 0.944043 0.008476 -2.785864 8.229486 0.517188 -0.383843 -0.860185 -9.077970 -0.276180 -0.458953 10.833708 -3.706722 -4.566659 4.836815 0.000000 0.000000 0.000000 -1.252555 1.238265 -15.146644 4.592110 -1.837169 34.534770 -2.016263 -7.407213 9.509246 0.000000 0.000000 0.000000 -0.004550 -0.208679 4.827061 0.132578 0.104903 -3.092393 -0.433986 4.031375 4.979995 8.112188 -1.598742 -23.599194 0.000000 0.000000 0.000000 -22.460751 -0.117565 -4.720591 -46.079510 -2.843219 -3.718906 -102.978125 -63.652365 75.982618 0.000000 0.000000 0.000000 21.317606 -0.934617 -0.055646 55.716816 18.452843 2.706421 103.241288 77.997852 100.594067 0.000000 0.000000 0.000000 
0.001102 0.946568 0.015872 -2.990662 8.698668 0.860959 0.016592 -0.784193 -8.546138 -0.324724 -0.404721 9.905373 -4.130829 -4.993884 5.405015 0.000000 0.000000 0.000000 -1.420494 1.362167 -17.548168 3.295371 -1.461535 37.266810 -1.015375 -5.618720 10.555043 0.000000 0.000000 0.000000 -0.161283 -0.175613 4.257134 -0.163428 0.268589 -3.688499 -0.082336 7.021354 5.874223 6.674169 -0.711910 -21.909865 0.000000 0.000000 0.000000 -20.808622 1.164770 -5.843830 -46.181583 4.324251 -6.357862 -99.048485 -62.153774 69.157888 0.000000 0.000000 0.000000 17.794019 3.466926 3.087932 54.095814 29.850575 8.248974 -170.899447 82.046583 -157.135684 0.000000 0.000000 0.000000 
-0.000610 0.948231 0.023035 -3.115741 9.416465 1.715771 -0.433613 -0.841160 -8.906816 1.111194 -0.645882 9.510012 -4.479326 -5.456304 5.646841 0.000000 0.000000 0.000000 -1.892653 1.336093 -18.739233 1.901783 -0.677305 32.260310 -2.518257 -8.004480 8.233580 0.000000 0.000000 0.000000 0.713972 -0.174614 3.394468 -1.379908 0.819203 -4.148163 -0.344610 10.767187 5.296578 9.092595 -1.557302 -21.791286 0.000000 0.000000 0.000000 -20.768037 1.287433 -7.052551 -43.538787 10.994578 -7.933864 -96.014127 -62.605775 65.426831 0.000000 0.000000 0.000000 14.464025 5.183709 4.539787 53.600277 43.869389 16.244729 -123.979290 70.733328 -90.698834 0.000000 0.000000 0.000000 
-0.003674 0.950425 0.030341 -2.947504 9.962944 2.441378 -0.327123 -0.821778 -8.782475 1.196224 -0.602082 8.577212 -4.952883 -5.854108 6.346028 0.000000 0.000000 0.000000 -1.980847 1.318017 -18.966581 0.083824 0.187543 25.426660 -4.805392 -12.427704 5.617050 0.000000 0.000000 0.000000 1.277089 -0.197765 3.297206 -1.735875 1.001669 -5.002434 -2.196631 15.033630 5.001039 12.435971 -2.592964 -22.986370 0.000000 0.000000 0.000000 -19.427487 0.243947 -7.395458 -42.416380 16.759370 -9.510337 -91.338625 -65.461551 62.652863 0.000000 0.000000 0.000000 9.774306 7.383126 5.553746 43.493453 60.529399 21.996970 -96.752187 50.664816 -41.874310 0.000000 0.000000 0.000000 
-0.007819 0.952277 0.038085 -2.101607 12.353112 3.891657 -0.972991 -0.932010 -9.566806 1.668208 -0.636487 7.772453 -6.334282 -7.544023 7.421823 0.000000 0.000000 0.000000 -2.082242 1.215612 -18.738721 -1.502851 0.609210 19.736545 -5.200510 -13.110088 2.313467 0.000000 0.000000 0.000000 1.286217 -0.196118 3.133482 -2.887922 1.518095 -5.997408 -3.922085 16.072533 4.271009 15.363229 -4.176574 -22.225354 0.000000 0.000000 0.000000 -18.393127 0.366507 -7.688909 -40.819767 20.757539 -10.455052 -84.000539 -70.001447 60.296925 0.000000 0.000000 0.000000 3.212624 10.494503 5.620710 18.545901 67.776572 11.687620 -84.470750 26.516026 -13.858289 0.000000 0.000000 0.000000 
-0.012670 0.953364 0.046435 -1.630451 14.314604 4.496990 -1.092064 -0.971306 -9.870635 1.993450 -0.697957 7.782992 -7.389628 -8.943174 8.000357 0.000000 0.000000 0.000000 -3.050751 0.957776 -17.717828 -1.342168 0.486782 15.298334 -5.960134 -14.678568 5.063531 0.000000 0.000000 0.000000 1.926095 -0.220892 2.951503 -4.297191 2.105150 -7.218057 -4.763035 17.684614 5.083418 17.448473 -4.775674 -23.325000 0.000000 0.000000 0.000000 -16.055670 0.856686 -7.637712 -41.372255 22.194765 -11.369948 -93.112565 -72.512654 69.968493 0.000000 0.000000 0.000000 -4.590153 11.714663 3.930924 -5.203153 67.631934 -0.804214 -72.728065 5.486833 2.536691 0.000000 0.000000 0.000000 
-0.018550 0.953760 0.056138 -0.970400 16.572251 4.774139 -1.267290 -0.962130 -9.745800 2.299946 -0.760376 7.844832 -8.573882 -10.613182 8.473652 0.000000 0.000000 0.000000 -3.646582 0.747531 -16.052974 -1.974789 0.576750 12.965509 -7.107371 -16.809651 7.221853 0.000000 0.000000 0.000000 2.627923 -0.246862 2.764531 -5.720129 2.656767 -7.793653 -5.631146 18.455418 5.836383 19.642845 -5.771351 -23.667935 0.000000 0.000000 0.000000 -13.854082 1.191317 -7.279705 -42.344103 21.484735 -11.695283 -108.838162 -74.982554 86.896793 0.000000 0.000000 0.000000 -11.333479 13.541698 2.445493 -15.229270 60.178088 -4.309401 -59.455795 -4.688984 7.004602 0.000000 0.000000 0.000000 
-0.025386 0.954071 0.066577 -0.604142 17.395872 4.539871 -1.714021 -0.942695 -9.433449 3.571329 -1.052263 8.716498 -8.911225 -11.178437 8.461145 0.000000 0.000000 0.000000 -3.819326 0.680454 -15.792835 -1.665782 0.472266 13.813145 -5.386261 -13.119147 6.616464 0.000000 0.000000 0.000000 3.326812 -0.262505 2.513643 -6.549281 2.966035 -7.906450 -6.195639 19.807883 6.238990 20.821800 -5.914444 -24.760334 0.000000 0.000000 0.000000 -13.875384 2.291141 -8.173195 -41.241993 20.568815 -10.947143 -125.347231 -74.151083 103.254182 0.000000 0.000000 0.000000 -17.273845 14.423064 0.710158 -13.441991 55.321768 -1.878810 -45.887585 -8.746180 6.695778 0.000000 0.000000 0.000000 
-0.033053 0.952876 0.077579 -0.661813 16.829446 4.314931 -1.372114 -0.907973 -9.240388 4.144490 -1.273495 9.854502 -8.358896 -10.783729 7.735236 0.000000 0.000000 0.000000 -3.512899 0.737459 -15.666414 -1.870985 0.536885 14.311606 -1.999248 -5.662593 5.140744 0.000000 0.000000 0.000000 3.883051 -0.273617 2.310553 -7.298190 3.234933 -7.688312 -6.577717 20.601593 5.330580 20.817894 -5.559233 -25.458036 0.000000 0.000000 0.000000 -12.762006 3.996871 -8.354314 -42.347019 19.534094 -11.115853 -138.621718 -72.137207 116.470540 0.000000 0.000000 0.000000 -19.600553 15.663285 0.362959 -9.560552 50.202634 -0.146293 -35.732500 -3.027837 3.262961 0.000000 0.000000 0.000000 
-0.041528 0.951438 0.089342 -0.872873 15.549041 4.094025 -0.580830 -0.841774 -8.902665 4.185959 -1.391906 10.896984 -7.480573 -9.842640 6.960438 0.000000 0.000000 0.000000 -2.359958 0.972080 -16.460025 -2.286490 0.686247 16.125059 2.149932 4.236613 3.169518 0.000000 0.000000 0.000000 3.488990 -0.255633 2.382098 -7.148469 3.191340 -6.687522 -7.106853 20.585059 4.020616 21.025021 -5.913277 -24.980171 0.000000 0.000000 0.000000 -13.378403 3.964547 -8.496177 -43.073820 18.900661 -11.007559 -145.077965 -71.100354 124.124438 0.000000 0.000000 0.000000 -17.824858 14.500793 0.689648 -7.134279 48.420836 0.199111 -33.110124 3.943990 1.189290 0.000000 0.000000 0.000000 
-0.050515 0.950151 0.102256 -1.196566 12.754746 3.708581 0.271816 -0.793545 -8.712286 3.595116 -1.493782 13.157465 -5.251924 -6.487896 5.971200 0.000000 0.000000 0.000000 -1.445161 1.204446 -16.829012 -1.790122 0.663761 18.053981 5.496670 13.256964 1.127703 0.000000 0.000000 0.000000 3.467926 -0.254621 2.449513 -7.005291 3.131748 -6.374507 -7.469080 20.889177 1.966660 19.275427 -4.926320 -25.033409 0.000000 0.000000 0.000000 -13.568380 3.556439 -8.134484 -44.872301 17.815005 -11.117081 -148.416037 -69.511354 127.594881 0.000000 0.000000 0.000000 -11.697580 13.935209 2.587024 -3.337571 47.452661 0.321562 -36.401640 11.940610 -0.730443 0.000000 0.000000 0.000000 
-0.059704 0.948741 0.116273 -1.278497 9.677847 3.305365 1.110021 -0.712555 -8.207272 2.508268 -1.403550 15.279128 -3.248421 -3.131131 5.544171 0.000000 0.000000 0.000000 -0.638139 1.377095 -16.476174 -1.283228 0.665926 18.581852 8.607973 21.583203 0.546500 0.000000 0.000000 0.000000 3.430303 -0.225876 2.162788 -6.212349 2.828083 -5.030993 -7.953365 18.346725 0.230473 16.992413 -4.385855 -23.807029 0.000000 0.000000 0.000000 -14.883079 3.826311 -8.044424 -46.946677 15.529970 -10.688517 -152.484054 -67.468189 133.221181 0.000000 0.000000 0.000000 -5.645117 12.885127 4.159831 2.432769 48.659295 1.152885 -43.690657 20.729278 -3.863249 0.000000 0.000000 0.000000 
